<?xml version="1.0" encoding="UTF-8" standalone="no"?>
<!-- Created with Inkscape (http://www.inkscape.org/) -->

<svg
   xmlns:dc="http://purl.org/dc/elements/1.1/"
   xmlns:cc="http://creativecommons.org/ns#"
   xmlns:rdf="http://www.w3.org/1999/02/22-rdf-syntax-ns#"
   xmlns:svg="http://www.w3.org/2000/svg"
   xmlns="http://www.w3.org/2000/svg"
   xmlns:sodipodi="http://sodipodi.sourceforge.net/DTD/sodipodi-0.dtd"
   xmlns:inkscape="http://www.inkscape.org/namespaces/inkscape"
   id="svg3231"
   version="1.1"
   inkscape:version="0.48.3.1 r9886"
   width="267"
   height="210"
   sodipodi:docname="swimmer-outline.svg"
   inkscape:export-filename="/var/www/sites/playground/html5/canvas/trainprogramme/images/swimmer-template.png"
   inkscape:export-xdpi="74.998947"
   inkscape:export-ydpi="74.998947">
  <metadata
     id="metadata3237">
    <rdf:RDF>
      <cc:Work
         rdf:about="">
        <dc:format>image/svg+xml</dc:format>
        <dc:type
           rdf:resource="http://purl.org/dc/dcmitype/StillImage" />
        <dc:title></dc:title>
      </cc:Work>
    </rdf:RDF>
  </metadata>
  <defs
     id="defs3235">
    <clipPath
       clipPathUnits="userSpaceOnUse"
       id="clipPath3273">
      <rect
         style="opacity:0.71604937;fill:#33a8ce;fill-opacity:1;fill-rule:nonzero;stroke:#483939;stroke-width:1.60000002;stroke-linecap:round;stroke-linejoin:round;stroke-miterlimit:4;stroke-opacity:1;stroke-dasharray:none;stroke-dashoffset:1.1"
         id="rect3275"
         width="305.63379"
         height="109.15493"
         x="-314.78873"
         y="-16.056337" />
    </clipPath>
  </defs>
  <sodipodi:namedview
     pagecolor="#ffffff"
     bordercolor="#666666"
     borderopacity="1"
     objecttolerance="10"
     gridtolerance="10"
     guidetolerance="10"
     inkscape:pageopacity="0"
     inkscape:pageshadow="2"
     inkscape:window-width="1855"
     inkscape:window-height="1056"
     id="namedview3233"
     showgrid="false"
     inkscape:zoom="1.42"
     inkscape:cx="133.5"
     inkscape:cy="105"
     inkscape:window-x="65"
     inkscape:window-y="24"
     inkscape:window-maximized="1"
     inkscape:current-layer="svg3231" />
  <path
     style="fill:none;stroke:#000000;stroke-width:1px;stroke-linecap:butt;stroke-linejoin:miter;stroke-opacity:1"
     d="m 52.816901,98.732394 c -0.938967,0 -2.816901,0.938968 -2.816901,0 0,-0.938967 3.755869,0 2.816901,0 -1.643192,0 -3.286385,0 -4.929577,0 -1.408451,0 -2.827778,0.174697 -4.225352,0 -0.704757,-0.08809 -2.796388,-0.925291 -3.521127,-1.40845 -0.27622,-0.184147 -0.469483,-0.469484 -0.704225,-0.704226 -0.234742,-0.234741 -0.555762,-0.407298 -0.704226,-0.704225 -0.104979,-0.209959 0,-0.469484 0,-0.704225 0,-0.938968 0,-1.877935 0,-2.816902 0,-1.408451 0,-2.816901 0,-4.225352 0,-0.938967 -0.09343,-1.882594 0,-2.816901 0.14208,-1.420793 0.357914,-2.840107 0.704226,-4.225352 0.850166,-3.400665 0.334661,0.0349 1.40845,-2.112676 0.146885,-0.29377 -0.163948,-1.244503 0,-1.408451 0.165988,-0.165988 0.538238,0.165987 0.704226,0 0.165987,-0.165988 -0.165988,-0.538238 0,-0.704226 0.165987,-0.165987 0.538238,0.165988 0.704225,0 1.062839,-1.062838 1.811393,-2.403895 2.816902,-3.521126 1.110397,-1.233776 2.347417,-2.347418 3.521126,-3.521127 1.173709,-1.173709 2.347418,-2.347418 3.521127,-3.521127 0.234742,-0.234742 0.382162,-0.623709 0.704225,-0.704225 0.683199,-0.1708 1.408451,0 2.112676,0 0.469484,0 0.938968,0 1.408451,0 2.112676,0 4.225352,0 6.338028,0 1.408451,0 2.816902,0 4.225352,0 0.469484,0 0.938968,0 1.408451,0 0.234742,0 0.538238,-0.165988 0.704226,0 0.165987,0.165987 -0.20996,0.599245 0,0.704225 0.419918,0.20996 0.938967,0 1.40845,0 0.234742,0 0.538238,-0.165987 0.704226,0 0.165987,0.165988 -0.165988,0.538238 0,0.704226 0.165987,0.165987 0.494265,-0.10498 0.704225,0 0.296927,0.148463 0.469483,0.469483 0.704225,0.704225 0.704226,0.704225 1.408451,1.408451 2.112676,2.112676 0.469484,0.469483 0.877291,1.010081 1.408451,1.408451 0.419919,0.314939 1.037291,0.333066 1.408451,0.704225 0.598476,0.598476 0.900626,1.435577 1.40845,2.112676 0.199185,0.26558 0.555762,0.407298 0.704226,0.704225 0.10498,0.20996 0,0.469484 0,0.704226 0,0.234742 0,0.469483 0,0.704225 0,0.704225 0,1.408451 0,2.112676 0,2.347418 0,4.694836 0,7.042254 0,1.40845 0,2.816901 0,4.225352 0,0.234742 0,0.469483 0,0.704225 0,0.234742 0.10498,0.494266 0,0.704225 -0.641167,1.282334 -0.534211,0.412812 -1.408451,0.704226 -0.497962,0.165987 -0.949607,0.449312 -1.408451,0.704225 -1.654385,0.919103 -3.275192,1.897799 -4.929577,2.816902 -0.458844,0.254913 -0.910488,0.538237 -1.408451,0.704225 -0.222695,0.07423 -0.469483,0 -0.704225,0 -0.234742,0 -0.469484,0 -0.704225,0 -0.234742,0 -0.494266,-0.10498 -0.704226,0 -0.296927,0.148464 -0.407298,0.555762 -0.704225,0.704225 -0.20996,0.10498 -0.469484,0 -0.704226,0 -0.938967,0.704226 -1.790895,1.542673 -2.816901,2.112676 -1.105042,0.613913 -2.390461,0.843118 -3.521127,1.408456 -0.296927,0.14846 -0.428005,0.52007 -0.704225,0.70422 -0.436742,0.29116 -0.958354,0.43417 -1.408451,0.70423 -0.725759,0.43545 -1.40845,0.93896 -2.112676,1.40845 -0.704225,0.46948 -1.355656,1.02994 -2.112676,1.40845 -0.209959,0.10498 -0.469483,0 -0.704225,0 -0.469484,0 -0.938967,0 -1.408451,0 -0.234742,0 -0.469484,0 -0.704225,0 -0.234742,0 -0.538238,0.16598 -0.704226,0 -0.165987,-0.16599 0,-0.46949 0,-0.70423 0,-0.23474 0,-0.46948 0,-0.70422 0,-2.073 -0.120773,-0.50294 2.112676,-4.225356 z"
     id="path3296"
     inkscape:connector-curvature="0" />
  <path
     style="fill:none;stroke:#000000;stroke-width:1px;stroke-linecap:butt;stroke-linejoin:miter;stroke-opacity:1"
     d="m 79.577465,85.352113 c 1.173709,0 2.354596,-0.129615 3.521127,0 0.961945,0.106883 1.864648,0.531088 2.816901,0.704225 1.633101,0.296928 3.279855,0.520923 4.929577,0.704225 0.466613,0.05185 0.938968,0 1.408451,0 0.234742,0 0.494266,-0.104979 0.704225,0 0.296928,0.148464 0.407298,0.555762 0.704226,0.704226 0.209959,0.104979 0.469483,0 0.704225,0 0.469484,0 0.938967,0 1.408451,0 1.877934,0 3.755868,0 5.633802,0 0.70423,0 1.40845,0 2.11268,0 0.23474,0 0.47649,-0.05693 0.70422,0 0.72016,0.180038 1.38046,0.582189 2.11268,0.704225 0.69464,0.115774 1.40845,0 2.11267,0 0.46949,0 0.94809,-0.09207 1.40845,0 0.72791,0.145581 1.39253,0.524187 2.11268,0.704225 0.22773,0.05693 0.46948,0 0.70423,0 0.46948,0 0.93896,0 1.40845,0 1.17371,0 2.34741,0 3.52112,0 5.39906,0 10.79813,0 16.19719,0 11.73709,0 23.47418,0 35.21126,0 3.75587,0 7.51174,0 11.26761,0 0.93897,0 1.87793,0 2.8169,0 0.23474,0 0.46949,0 0.70423,0 0.23474,0 0.47649,0.05693 0.70422,0 0.72016,-0.180038 1.38477,-0.558644 2.11268,-0.704225 0.46036,-0.09207 0.93897,0 1.40845,0 0.70422,0 1.40845,0 2.11268,0 2.34741,0 4.69483,0 7.04225,0 1.40845,0 2.8169,0 4.22535,0 0.23474,0 0.53824,-0.165987 0.70423,0 0.16598,0.165988 0,0.469484 0,0.704225 0,2.58216 0,5.16432 0,7.746479 0,0.234742 0,0.469484 0,0.704226 0,0.234741 -0.18034,0.553947 0,0.704225 1.3004,1.08367 2.77383,1.94599 4.22535,2.816901 0.0148,0.009 5.61309,2.80507 5.6338,2.8169 1.12499,0.64285 2.23905,1.68532 3.52113,2.11268 0.0166,0.006 1.34414,-0.005 1.40845,0 2.58385,0.21532 5.15814,0.55197 7.74648,0.70422 1.40602,0.0827 2.82551,-0.15553 4.22535,0 0.73778,0.082 1.38046,0.58219 2.11268,0.70423 0.69464,0.11577 1.40845,0 2.11267,0 0.23474,0 0.48153,-0.0742 0.70423,0 0.49796,0.16599 0.89922,0.57692 1.40845,0.70422 0.45546,0.11387 0.94808,-0.0921 1.40845,0 0.7279,0.14558 1.39892,0.5003 2.11267,0.70423 0.93063,0.26589 1.86784,0.51441 2.81691,0.70422 1.40015,0.28003 2.83147,0.39448 4.22535,0.70423 0.72464,0.16103 1.39252,0.52419 2.11267,0.70423 0.22774,0.0569 0.48153,-0.0742 0.70423,0 0.49796,0.16598 0.89069,0.61793 1.40845,0.70422 0.92619,0.15437 1.88519,-0.11646 2.8169,0 6.54474,0.81809 0.26171,0.70423 4.22535,0.70423 0.23475,0 0.46949,0 0.70423,0 0.23474,0 0.49426,-0.10498 0.70422,0 2.16167,1.08083 4.21632,2.36383 6.33803,3.52112 0.46081,0.25135 0.93897,0.46949 1.40845,0.70423 0.46949,0.23474 1.03729,0.33306 1.40845,0.70422 0.16599,0.16599 0,0.46949 0,0.70423 0,0.23474 0,0.46948 0,0.70422 0,0.23475 0.10498,0.49427 0,0.70423 -0.69143,1.38287 -1.69098,0.32892 -2.8169,0.70422 -0.87021,0.29008 -0.70422,0.78248 -0.70422,1.40846 0,0.23474 0,0.46948 0,0.70422 0,0.23474 0.10498,0.49427 0,0.70423 -0.14847,0.29692 -0.55576,0.40729 -0.70423,0.70422 -0.10498,0.20996 0.16599,0.53824 0,0.70423 -0.16599,0.16598 -0.46948,0 -0.70422,0 -2.11268,0 -4.22536,0 -6.33803,0 -2.34742,0 -4.69484,0 -7.04226,0 -0.93896,0 -1.88737,-0.13279 -2.8169,0 -0.73485,0.10498 -1.38477,0.55864 -2.11267,0.70422 -0.46037,0.0921 -0.93897,0 -1.40845,0 -0.93897,0 -1.87794,0 -2.8169,0 -3.52113,0 -7.04226,0 -10.56339,0 -1.1737,0 -2.34741,0 -3.52112,0 -0.70423,0 -1.42948,0.1708 -2.11268,0 -0.32206,-0.0805 -0.38216,-0.62371 -0.70422,-0.70422 -0.6832,-0.1708 -1.44459,0.22269 -2.11268,0 -0.2227,-0.0742 0.16599,-0.53824 0,-0.70423 -0.16599,-0.16599 -0.46948,0 -0.70422,0 -0.46949,0 -0.95704,0.12898 -1.40846,0 -3.74336,-1.06953 -2.84666,-1.14461 -5.6338,-2.8169 -0.4501,-0.27006 -0.97171,-0.41306 -1.40845,-0.70423 -0.27622,-0.18414 -0.4073,-0.55576 -0.70422,-0.70422 -0.20996,-0.10498 -0.49427,0.10498 -0.70423,0 -0.29693,-0.14846 -0.4073,-0.55576 -0.70423,-0.70423 -0.20995,-0.10498 -0.53823,0.16599 -0.70422,0 -0.16599,-0.16598 0.16599,-0.53823 0,-0.70422 -0.16599,-0.16599 -0.51643,0.14084 -0.70423,0 -0.79674,-0.59756 -1.40845,-1.40845 -2.11267,-2.11268 -0.46949,-0.46948 -0.93897,-0.93896 -1.40845,-1.40845 -1.31003,-1.31003 -1.74439,-1.92853 -3.52113,-2.8169 -0.66395,-0.33197 -1.42345,-0.42853 -2.11268,-0.70422 -2.96024,-1.1841 0.3659,-0.49021 -4.22535,-1.40846 -0.13638,-0.0273 -1.35053,0.029 -1.40845,0 -0.29693,-0.14846 -0.4073,-0.55576 -0.70422,-0.70422 -0.20996,-0.10498 -0.46949,0 -0.70423,0 -1.17371,0 -2.34742,0 -3.52113,0 -1.64319,0 -3.28638,0 -4.92957,0 -7.277,0 -14.55399,0 -21.83099,0 -5.6338,0 -11.2676,0 -16.90141,0 -2.11267,0 -4.23265,0.17545 -6.33803,0 -0.73975,-0.0617 -1.38045,-0.58219 -2.11267,-0.70423 -0.69465,-0.11577 -1.40845,0 -2.11268,0 -0.23474,0 -0.46948,0 -0.70422,0 -0.23474,0 -0.47268,0.0386 -0.70423,0 -1.18067,-0.19677 -2.33011,-0.58512 -3.52113,-0.70422 -1.16788,-0.11679 -2.34741,0 -3.52112,0 -1.87794,0 -3.75587,0 -5.6338,0 -1.40846,0 -2.81691,0 -4.22536,0 -0.70422,0 -1.40845,0 -2.11267,0 -0.23474,0 -0.53824,0.16599 -0.70423,0 -0.16599,-0.16599 0.22061,-0.62401 0,-0.70423 -5.33848,-1.94126 -6.71531,-1.80528 -11.2676,-2.8169 -0.94482,-0.20996 -1.85651,-0.58417 -2.816905,-0.70422 -0.931717,-0.11647 -1.877935,0 -2.816902,0 -0.234742,0 -0.48153,0.0742 -0.704225,0 -0.497963,-0.16599 -0.938967,-0.46949 -1.408451,-0.70423 -0.469483,-0.23474 -0.938967,-0.46948 -1.408451,-0.70422 -0.469483,-0.23475 -0.921094,-0.50929 -1.40845,-0.70423 -0.689226,-0.27569 -1.434337,-0.40274 -2.112676,-0.70422 -1.438975,-0.639549 -2.763284,-1.527854 -4.225352,-2.112681 -0.898641,-0.359456 -1.862205,-0.545109 -2.816902,-0.704225 -0.09928,-0.01655 -2.749927,0.01674 -2.816901,0 -0.509227,-0.127307 -0.910488,-0.538238 -1.408451,-0.704226 -0.222696,-0.07423 -0.538238,0.165988 -0.704225,0 -0.165988,-0.165987 0,-0.469483 0,-0.704225 0,-0.234742 0,-0.469484 0,-0.704225 0,-0.234742 0.165987,-0.538238 0,-0.704226 -0.165988,-0.165987 -0.469484,0 -0.704226,0 -0.234741,0 -0.469483,0 -0.704225,0 -0.234742,0 -0.538238,0.165988 -0.704225,0 -0.165988,-0.165987 0,-0.469483 0,-0.704225 0,-0.469484 0,-0.938967 0,-1.408451"
     id="path3298"
     inkscape:connector-curvature="0" />
  <path
     style="fill:none;stroke:#000000;stroke-width:1px;stroke-linecap:butt;stroke-linejoin:miter;stroke-opacity:1"
     d="m 82.394366,99.43662 c 0,9.34978 0.833132,4.10391 -7.042253,16.90141 -1.330747,2.16246 -2.666483,4.33377 -4.225352,6.33803 -16.847204,21.66069 5.424459,-9.33928 -10.563381,13.38028 -22.693952,32.2493 -0.481952,2.0881 -11.971831,15.49296 -0.341599,0.39853 -0.413064,0.9717 -0.704225,1.40845 -0.184147,0.27622 -0.469484,0.46948 -0.704225,0.70422 -0.234742,0.23474 -0.407298,0.55576 -0.704226,0.70423 -0.209959,0.10498 -0.469483,0 -0.704225,0 -0.234742,0 -0.469484,0 -0.704225,0 -0.234742,0 -0.538238,0.16598 -0.704226,0 -0.165987,-0.16599 0,-0.46949 0,-0.70423 0,-0.23474 0,-0.46948 0,-0.70422 0,-0.23475 -0.10498,-0.49427 0,-0.70423 0.148464,-0.29693 0.469484,-0.46948 0.704226,-0.70422 0.234741,-0.23475 0.469483,-0.46949 0.704225,-0.70423 0.469483,-0.46948 0.938967,-0.93897 1.408451,-1.40845 0.234741,-0.23474 0.428005,-0.52008 0.704225,-0.70423 0.436742,-0.29116 0.910488,-0.53823 1.408451,-0.70422 0.222695,-0.0742 0.469483,0 0.704225,0 0.234742,0 0.469484,0 0.704225,0 0.234742,0 0.474042,0.046 0.704226,0 0.94907,-0.18981 1.918261,-0.34477 2.816901,-0.70423 1.462068,-0.58482 2.816902,-1.40845 4.225352,-2.11267 0.938967,-0.46949 1.926675,-0.85206 2.816902,-1.40845 0.995303,-0.62207 1.821598,-1.49061 2.816901,-2.11268 0.890226,-0.55639 1.962646,-0.79827 2.816901,-1.40845 0.810418,-0.57887 1.442745,-1.37575 2.112677,-2.11268 1.678546,-1.8464 3.408142,-3.65593 4.929577,-5.6338 0.834553,-1.08492 1.35342,-2.38224 2.112676,-3.52113 0.651057,-0.97658 1.46162,-1.84031 2.112676,-2.8169 0.759256,-1.13888 1.278124,-2.43621 2.112676,-3.52112 1.521435,-1.97787 3.432374,-3.63753 4.929578,-5.63381 0.629878,-0.83983 0.736387,-2.01042 1.40845,-2.8169 0.541835,-0.6502 1.5142,-0.80997 2.112676,-1.40845 0.857735,-0.85773 0.329875,-1.57339 1.408451,-2.11267 0.20996,-0.10498 0.469484,0 0.704225,0 0.234742,0 0.469484,0 0.704226,0 0.234742,0 0.48153,0.0742 0.704225,0 0.514641,-0.17155 1.79038,-0.76386 2.112676,-1.40846 0.10498,-0.20995 -0.10498,-0.49426 0,-0.70422 0.148464,-0.29693 0.555762,-0.4073 0.704226,-0.70423 0.104979,-0.20996 0,-0.46948 0,-0.70422 0,-0.23474 0,-0.46948 0,-0.70423"
     id="path3300"
     inkscape:connector-curvature="0" />
  <path
     style="fill:none;stroke:#000000;stroke-width:1px;stroke-linecap:butt;stroke-linejoin:miter;stroke-opacity:1"
     d="m 107.74648,109.29577 c 0.55244,1.35375 -0.27622,2.84426 0,4.22536 0.46589,2.32947 1.22252,2.9366 2.8169,4.92957 0.0275,0.0344 1.39458,1.38764 1.40845,1.40845 0.29116,0.43675 0.41306,0.97171 0.70423,1.40846 0.71798,1.07698 0.97239,0.55323 2.11267,1.40845 0.53116,0.39837 0.87729,1.01008 1.40845,1.40845 0.035,0.0263 2.76468,1.37363 2.8169,1.40845 0.27622,0.18414 0.4073,0.55576 0.70423,0.70422 0.20996,0.10498 0.50041,-0.11646 0.70423,0 2.90438,1.93626 4.76289,3.27203 7.74647,4.92958 0.91769,0.50983 1.94342,0.82613 2.81691,1.40845 0.55244,0.36829 0.88999,0.99369 1.40845,1.40845 0.6609,0.52873 1.5142,0.80998 2.11267,1.40845 0.93897,0.93897 -1.17371,0.70423 0.70423,0.70423"
     id="path3302"
     inkscape:connector-curvature="0" />
  <path
     style="fill:none;stroke:#000000;stroke-width:1px;stroke-linecap:butt;stroke-linejoin:miter;stroke-opacity:1"
     d="m 205.6338,88.873239 c 6.71842,-2.687365 0.15094,-0.244333 9.15493,-2.816901 1.42752,-0.407861 2.78504,-1.048373 4.22535,-1.408451 1.38525,-0.346311 2.84011,-0.357914 4.22536,-0.704225 1.44031,-0.360077 2.79302,-1.017817 4.22535,-1.408451 12.16757,-3.318427 -8.55354,3.199865 9.15493,-2.112676 0.50276,-0.150828 0.93897,-0.469483 1.40845,-0.704225 0.46948,-0.234742 0.95835,-0.434167 1.40845,-0.704225 0.72576,-0.435456 1.35566,-1.029941 2.11268,-1.408451 0.66395,-0.331975 1.40845,-0.469484 2.11267,-0.704226 1.40845,-0.469483 2.80333,-0.981843 4.22535,-1.40845 8.84264,-2.652792 -2.17049,0.958239 4.92958,-1.408451 2.57021,-0.856736 2.68656,-0.84957 5.6338,-2.112676 1.88815,-0.809205 0.76293,-0.704225 2.11268,-0.704225 0.23474,0 0.53824,-0.165988 0.70423,0 0.16598,0.165987 0,0.469483 0,0.704225 0,0.469484 0,0.938967 0,1.408451 0,0.234741 0,0.469483 0,0.704225 0,0.234742 0.14084,0.516432 0,0.704225 -0.59756,0.79674 -1.40846,1.408451 -2.11268,2.112676 -1.40845,1.408451 -2.89288,2.744822 -4.22535,4.225353 -2.25573,2.506359 -2.29974,3.4496 -4.22535,6.338028 -0.65106,0.976585 -1.40846,1.877934 -2.11268,2.816901 -0.70423,0.938967 -1.37947,1.900389 -2.11268,2.816902 -0.20738,0.259228 -0.46948,0.469483 -0.70422,0.704225 -0.23474,0.234742 -0.46949,0.469483 -0.70423,0.704225 -0.23474,0.234742 -0.4073,0.555762 -0.70422,0.704226 -0.20996,0.104979 -0.46949,0 -0.70423,0 -0.23474,0 -0.46948,0 -0.70422,0 -0.23475,0 -0.47852,-0.06449 -0.70423,0 -1.42751,0.407861 -2.89745,0.7445 -4.22535,1.40845 -2.21289,1.106444 -0.47206,1.643708 -2.8169,2.112676 -0.69055,0.13811 -1.40845,0 -2.11268,0 -2.8169,0 -5.6338,0 -8.4507,0 -8.21597,0 -16.43193,0 -24.64789,0"
     id="path3304"
     inkscape:connector-curvature="0" />
</svg>
